<?xml version="1.0" encoding="UTF-8"?>
<svg id="Layer_2" data-name="Layer 2" xmlns="http://www.w3.org/2000/svg" viewBox="0 0 780.67 861.18">
  <defs>
    <style>
      .cls-1 {
        fill: aqua;
      }

      .cls-2 {
        fill: none;
      }

      .cls-3 {
        stroke: #000;
        stroke-miterlimit: 10;
      }
    </style>
  </defs>
  <g id="Layer_1-2" data-name="Layer 1">
    <g>
      <g>
        <path class="cls-1" d="M347.92,690.85c-91.6,0-177.71-35.67-242.48-100.44C40.67,525.64,5,439.52,5,347.92S40.67,170.21,105.44,105.44C170.21,40.67,256.33,5,347.92,5s177.71,35.67,242.48,100.44c64.77,64.77,100.44,150.89,100.44,242.48s-35.67,177.71-100.44,242.48c-64.77,64.77-150.89,100.44-242.48,100.44Z"/>
        <path d="M347.92,10c45.62,0,89.88,8.93,131.53,26.55,40.24,17.02,76.38,41.39,107.42,72.42,31.04,31.04,55.4,67.18,72.42,107.42,17.62,41.65,26.55,85.91,26.55,131.53s-8.93,89.88-26.55,131.53c-17.02,40.24-41.39,76.38-72.42,107.42-31.04,31.04-67.18,55.4-107.42,72.42-41.65,17.62-85.91,26.55-131.53,26.55s-89.88-8.93-131.53-26.55c-40.24-17.02-76.38-41.39-107.42-72.42-31.04-31.04-55.4-67.18-72.42-107.42-17.62-41.65-26.55-85.91-26.55-131.53s8.93-89.88,26.55-131.53c17.02-40.24,41.39-76.38,72.42-107.42,31.04-31.04,67.18-55.4,107.42-72.42,41.65-17.62,85.91-26.55,131.53-26.55M347.92,0C155.77,0,0,155.77,0,347.92s155.77,347.92,347.92,347.92,347.92-155.77,347.92-347.92S540.08,0,347.92,0h0Z"/>
      </g>
      <g>
        <path class="cls-1" d="M587.3,856.18c-103.87,0-188.37-84.5-188.37-188.37s84.5-188.37,188.37-188.37,188.37,84.5,188.37,188.37-84.5,188.37-188.37,188.37Z"/>
        <path d="M587.3,484.44c48.98,0,95.03,19.07,129.66,53.71,34.63,34.63,53.71,80.68,53.71,129.66s-19.07,95.03-53.71,129.66c-34.63,34.63-80.68,53.71-129.66,53.71s-95.03-19.07-129.66-53.71c-34.63-34.63-53.71-80.68-53.71-129.66s19.07-95.03,53.71-129.66c34.63-34.63,80.68-53.71,129.66-53.71M587.3,474.44c-106.8,0-193.37,86.58-193.37,193.37s86.58,193.37,193.37,193.37,193.37-86.58,193.37-193.37-86.58-193.37-193.37-193.37h0Z"/>
      </g>
    </g>
    <g>
      <path class="cls-3" d="M82.62,272.67v-11.08h41.41v11.18c0,1.14-.41,2.11-1.22,2.91-.81.8-1.77,1.2-2.88,1.2s-2.12-.41-2.95-1.22c-.83-.81-1.25-1.77-1.25-2.88v-2.98h-8.3v52.49c0,1.14-.41,2.11-1.22,2.91-.81.8-1.77,1.2-2.88,1.2-1.17,0-2.17-.4-2.98-1.2-.81-.8-1.22-1.77-1.22-2.91v-52.49h-8.3v2.88c0,1.14-.4,2.11-1.2,2.91s-1.77,1.2-2.91,1.2-2.11-.4-2.91-1.2c-.8-.8-1.2-1.77-1.2-2.91Z"/>
      <path class="cls-3" d="M143.12,322.28v-38.92c0-1.14.4-2.12,1.2-2.95.8-.83,1.77-1.25,2.91-1.25s2.11.41,2.91,1.22c.8.81,1.2,1.81,1.2,2.98v5.13l6.69-5.71c2.77-2.34,5.47-3.52,8.11-3.52h6.01c3.38,0,6.28,1.2,8.69,3.61,2.41,2.41,3.61,5.31,3.61,8.69v2.2c0,1.17-.4,2.17-1.2,2.98-.8.81-1.77,1.22-2.91,1.22s-2.11-.4-2.91-1.2c-.8-.8-1.2-1.77-1.2-2.91v-2.29c0-1.14-.4-2.11-1.2-2.91-.8-.8-1.77-1.2-2.91-1.2h-5.32c-1.14,0-2.41.6-3.81,1.81l-11.67,10.11v22.9c0,1.14-.41,2.11-1.22,2.91-.81.8-1.77,1.2-2.88,1.2s-2.11-.4-2.91-1.2c-.8-.8-1.2-1.77-1.2-2.91Z"/>
      <path class="cls-3" d="M215.74,296.79h16.09c.88,0,2.15.2,3.81.58l-.1-5.81c0-1.14-.4-2.11-1.2-2.9-.8-.8-1.77-1.2-2.91-1.2h-15.61c-1.11,0-2.07-.41-2.89-1.22-.82-.81-1.22-1.77-1.22-2.88s.4-2.11,1.2-2.91c.8-.8,1.77-1.2,2.91-1.2h15.6c3.39,0,6.28,1.19,8.68,3.56,2.4,2.38,3.64,5.29,3.74,8.74l1.03,30.71c0,1.14-.41,2.11-1.22,2.91-.81.8-1.77,1.2-2.88,1.2-1.17,0-2.17-.4-2.98-1.2-.81-.8-1.22-1.77-1.22-2.91l-6.94,4.1h-13.89c-3.46,0-6.39-1.2-8.8-3.61-2.41-2.41-3.62-5.34-3.62-8.79v-4.79c0-3.42,1.21-6.34,3.64-8.76,2.43-2.42,5.35-3.64,8.78-3.64ZM236.25,312.75l-.24-3.47c-.03-1.17-.44-2.15-1.22-2.93-.78-.78-1.74-1.17-2.88-1.17h-16.18c-1.14,0-2.11.4-2.91,1.2-.8.8-1.2,1.77-1.2,2.91v4.59c0,1.11.41,2.07,1.22,2.88.81.81,1.78,1.22,2.88,1.22h11.58l8.94-5.22Z"/>
      <path class="cls-3" d="M275.39,279.26h18.8c2.93,0,5.52.87,7.76,2.61,2.25,1.74,3.37,3.44,3.37,5.1,0,1.17-.42,2.13-1.25,2.88-.83.75-1.75,1.12-2.76,1.12-1.3,0-2.49-.59-3.56-1.76s-2.2-1.76-3.37-1.76h-18.55c-1.82,0-2.73.76-2.73,2.27,0,1.07.61,1.87,1.83,2.42l21.81,9.71c2.21.98,4.03,2.55,5.44,4.71,1.42,2.17,2.12,4.57,2.12,7.2,0,3.52-1.25,6.49-3.74,8.94s-5.31,3.66-8.47,3.66h-16.6c-2.87,0-5.53-.86-7.98-2.59-2.46-1.73-3.69-3.4-3.69-5.03,0-1.07.4-2.03,1.2-2.86.8-.83,1.83-1.25,3.1-1.25,1.04,0,2.16.59,3.34,1.76,1.19,1.17,2.91,1.76,5.15,1.76h15.28c1.2,0,2.21-.46,3.03-1.39.81-.93,1.22-1.99,1.22-3.2,0-1.86-.91-3.19-2.73-4l-22.02-9.91c-2.12-.94-3.74-2.31-4.88-4.1-1.14-1.79-1.71-3.61-1.71-5.47,0-2.93,1.02-5.47,3.05-7.62,2.03-2.15,4.55-3.22,7.54-3.22Z"/>
      <path class="cls-3" d="M324.22,322.28v-56.69c0-1.11.4-2.05,1.2-2.83.8-.78,1.77-1.17,2.91-1.17s2.11.4,2.91,1.2c.8.8,1.2,1.77,1.2,2.91v20.7l6.59-4.3c2.99-1.89,5.66-2.83,8.01-2.83h5.08c3.35,0,6.23,1.2,8.64,3.59,2.41,2.39,3.66,5.3,3.76,8.72l1.03,30.71c.03,1.14-.36,2.11-1.17,2.91-.81.8-1.79,1.2-2.93,1.2s-2.1-.42-2.88-1.25-1.19-1.78-1.22-2.86l-1.03-30.81c-.03-1.11-.46-2.07-1.27-2.88-.81-.81-1.79-1.22-2.93-1.22h-4.59c-1.04,0-2.18.41-3.42,1.22l-11.67,7.62v26.07c0,1.14-.4,2.11-1.2,2.91-.8.8-1.77,1.2-2.91,1.2s-2.11-.4-2.91-1.2c-.8-.8-1.2-1.77-1.2-2.91Z"/>
      <path class="cls-3" d="M384.62,272.67v-11.08h41.41v11.18c0,1.14-.41,2.11-1.22,2.91-.81.8-1.77,1.2-2.88,1.2s-2.12-.41-2.95-1.22c-.83-.81-1.25-1.77-1.25-2.88v-2.98h-8.3v52.49c0,1.14-.41,2.11-1.22,2.91-.81.8-1.77,1.2-2.88,1.2-1.17,0-2.17-.4-2.98-1.2-.81-.8-1.22-1.77-1.22-2.91v-52.49h-8.3v2.88c0,1.14-.4,2.11-1.2,2.91-.8.8-1.77,1.2-2.91,1.2s-2.11-.4-2.91-1.2c-.8-.8-1.2-1.77-1.2-2.91Z"/>
      <path class="cls-3" d="M464.63,318.08l13.79-8.79v-25.93c0-1.14.4-2.12,1.2-2.95.8-.83,1.77-1.25,2.91-1.25s2.11.42,2.91,1.25c.8.83,1.2,1.81,1.2,2.95v38.92c0,1.11-.41,2.07-1.22,2.88-.81.81-1.77,1.22-2.88,1.22s-2.07-.41-2.88-1.22c-.81-.81-1.22-1.77-1.22-2.88v-3.22l-7.12,4.64c-2.8,1.79-5.62,2.69-8.48,2.69h-3.8c-3.35,0-6.22-1.17-8.63-3.52-2.41-2.34-3.69-5.21-3.85-8.59l-1.22-30.91c-.07-1.07.32-2.03,1.15-2.86s1.81-1.25,2.95-1.25,2.06.41,2.86,1.22c.8.81,1.21,1.77,1.25,2.88l1.12,30.32c.1,2.93,1.77,4.39,5.02,4.39h4.97Z"/>
      <path class="cls-3" d="M513.92,265.59v19.29l3.61-2.88c2.28-1.89,4.64-2.83,7.08-2.83h7.52c2.77,0,5.22.94,7.37,2.83l3.91,3.37c1.07.94,1.96,2.29,2.66,4.05.7,1.76,1.05,3.48,1.05,5.18v16.6c0,1.5-.33,3.08-.98,4.74-.65,1.66-1.4,2.88-2.25,3.66l-3.56,3.37c-.91.88-2.21,1.67-3.91,2.37-1.69.7-3.12,1.05-4.3,1.05h-7.03c-3.42,0-7.15-1.9-11.18-5.71v1.61c0,1.14-.4,2.11-1.2,2.91-.8.8-1.77,1.2-2.91,1.2s-2.11-.4-2.91-1.2c-.8-.8-1.2-1.77-1.2-2.91v-56.69c0-1.14.41-2.11,1.22-2.91.81-.8,1.77-1.2,2.88-1.2s2.11.4,2.91,1.2c.8.8,1.2,1.77,1.2,2.91ZM531.49,287.46h-5.66c-1.37,0-2.41.31-3.12.93l-7.37,6.3c-.94.85-1.42,2.12-1.42,3.81v9.28c0,1.37.54,2.51,1.61,3.42l6.59,5.57c.94.88,1.94,1.32,2.98,1.32h6.69c.94,0,1.76-.29,2.44-.88l3.27-2.93c.88-.65,1.32-1.58,1.32-2.78v-17.29c0-1.37-.44-2.41-1.32-3.12l-2.98-2.49c-.91-.75-1.92-1.12-3.03-1.12Z"/>
      <path class="cls-3" d="M607.23,294.69v9.91c0,1.11-.41,2.07-1.22,2.88-.81.81-1.77,1.22-2.88,1.22h-29v2.39c0,1.4.6,2.59,1.81,3.56l2.39,2c1.3,1.01,2.54,1.51,3.71,1.51h21.09c1.11,0,2.07.4,2.88,1.2.81.8,1.22,1.77,1.22,2.91s-.42,2.07-1.25,2.88c-.83.81-1.78,1.22-2.86,1.22h-21.63c-1.43,0-2.94-.3-4.52-.9-1.58-.6-2.74-1.23-3.49-1.88l-3.66-3.22c-1.14-.91-2.09-2.18-2.86-3.81-.77-1.63-1.15-3.12-1.15-4.49v-18.8c0-1.07.42-2.52,1.25-4.35.83-1.82,1.88-3.24,3.15-4.25l3.42-2.69c2.25-1.82,4.74-2.73,7.47-2.73h11.52c2.9,0,5.63,1.2,8.2,3.61l3.08,2.93c2.21,1.99,3.32,4.95,3.32,8.89ZM574.22,294.05v6.35h24.9v-5.71c0-1.53-.47-2.7-1.42-3.52l-2.39-2.1c-1.24-1.01-2.34-1.51-3.32-1.51h-10.3c-1.27,0-2.43.44-3.47,1.32l-2.39,2c-1.07.81-1.61,1.87-1.61,3.17Z"/>
    </g>
    <rect class="cls-2" x="308.08" y="301.27" width="321.15" height="21.15"/>
  </g>
</svg>